<?xml version="1.0" encoding="utf-8"?>
<!-- Generator: Adobe Illustrator 24.1.1, SVG Export Plug-In . SVG Version: 6.00 Build 0)  -->
<svg version="1.1" id="Layer_1" xmlns="http://www.w3.org/2000/svg" xmlns:xlink="http://www.w3.org/1999/xlink" x="0px" y="0px"
	 viewBox="0 0 512 512" style="enable-background:new 0 0 512 512;" xml:space="preserve">
<style type="text/css">
	.st0{fill:#0071CE;}
	.st1{fill:#DC8327;}
	.st2{fill:#F4B21B;}
	.st3{fill:#F2D864;}
</style>
<g>
	<path class="st0" d="M437.2,411.8c-6.5,0-12.6-4.2-14.7-10.7c-2.7-8.1,1.8-16.9,9.9-19.6c29.5-9.7,48.6-35.5,48.6-65.9
		c0-38.5-31.3-69.7-69.7-69.7c-2.7,0-5.5,0.2-9,0.7l-15.2,2l-2.2-15.1c-9.3-64.9-65.9-113.9-131.5-113.9
		c-54.3,0-102.6,32.5-123.1,82.8l-3.9,9.5l-10.2,0.2C69.2,212.8,31,251.7,31,298.6c0,34.2,19.9,65.5,50.7,79.6
		c7.8,3.6,11.2,12.8,7.6,20.6c-3.6,7.8-12.8,11.2-20.5,7.6C27,387.3,0,345,0,298.6c0-60.3,46.5-110.8,105.5-117
		c27.2-56.9,84.2-93.1,147.8-93.1c76.2,0,142.4,53.4,159.6,126.4c54.8,0.9,99.1,45.7,99.1,100.7c0,43.3-28.1,81.7-69.9,95.3
		C440.5,411.5,438.8,411.8,437.2,411.8z"/>
	<path class="st1" d="M200,418.5L200,418.5L200,418.5L200,418.5L200,418.5L200,418.5L200,418.5L200,418.5L200,418.5L200,418.5
		L200,418.5L200,418.5L200,418.5L200,418.5L200,418.5L200,418.5L200,418.5L200,418.5l-0.1-0.1l0,0l0,0l0,0l0,0l0,0l0,0l0,0h0l0,0
		l0,0h0l0,0l0,0h0c-0.2-0.1-0.5-0.1-0.8-0.2h0h0h0h0h0h0l0,0h0h0h0h0h0h0h0h0h0h0h0h0h0h0h0h0c-6.7,0-12.2-5.5-12.2-12.1V269.8h10.4
		h0.1c1.6,0.1,2.7-1.2,2.7-2.6c0-1.1-0.7-2-1.6-2.4l-50.1-34.6c-0.9-0.6-2.1-0.6-3,0L94.6,265c-0.9,0.7-1.4,1.8-1,2.9
		c0.3,1.1,1.4,1.8,2.5,1.8h10.4l0,136.3c0.1,9.4,7.6,17.1,17.3,17.4l0.3,0h74.8h0c0.7,0,1.3-0.3,1.8-0.7l0,0l0,0l0,0l0,0l0,0l0,0
		l0,0l0,0l0,0l0,0l0,0l0,0l0,0c0.5-0.5,0.7-1.1,0.7-1.8v0v0v0v0v0v0v0v0C201.6,419.8,200.9,418.9,200,418.5z"/>
	<path class="st2" d="M308.2,418.5L308.2,418.5L308.2,418.5L308.2,418.5L308.2,418.5L308.2,418.5L308.2,418.5L308.2,418.5
		L308.2,418.5L308.2,418.5L308.2,418.5L308.2,418.5L308.2,418.5L308.2,418.5L308.2,418.5L308.2,418.5L308.2,418.5L308.2,418.5
		L308.2,418.5l-0.1-0.1l0,0l0,0l0,0l0,0l0,0l0,0l0,0l0,0l0,0l0,0l0,0l0,0l0,0h0c-0.2-0.1-0.5-0.1-0.8-0.2h0h0h0h0h0h0l0,0h0h0h0h0h0
		h0h0h0h0h0h0h0h0h0h0h0c-6.7,0-12.2-5.5-12.2-12.1V300.3h10.4h0.1c1.4,0,2.6-1.2,2.6-2.6c0-1.1-0.7-2-1.6-2.4l-50.1-34.6
		c-0.9-0.6-2.1-0.6-3,0l-50.5,34.8c-0.9,0.7-1.4,1.8-1,2.9c0.3,1.1,1.4,1.8,2.5,1.8h10.4l0,105.8c0,9.4,7.6,17.1,17.3,17.4l0.3,0
		h74.8h0c0.7,0,1.3-0.3,1.8-0.7l0,0l0,0l0,0l0,0l0,0l0,0l0,0l0,0l0,0l0,0l0,0l0,0l0,0c0.5-0.5,0.7-1.1,0.7-1.8v0v0v0v0v0v0v0v0
		C309.8,419.8,309.2,418.9,308.2,418.5z"/>
	<path class="st3" d="M416.7,418.5L416.7,418.5L416.7,418.5L416.7,418.5L416.7,418.5L416.7,418.5L416.7,418.5L416.7,418.5
		L416.7,418.5L416.7,418.5L416.7,418.5L416.7,418.5L416.7,418.5L416.7,418.5L416.7,418.5L416.7,418.5L416.7,418.5L416.7,418.5
		L416.7,418.5l-0.1-0.1l0,0l0,0l0,0l0,0l0,0l0,0l0,0l0,0l0,0l0,0l0,0l0,0l0,0h0c-0.2-0.1-0.5-0.1-0.8-0.2h0h0h0h0h0h0l0,0h0h0h0h0h0
		h0h0h0h0h0h0h0h0h0h0h0c-6.7,0-12.2-5.5-12.2-12.1v-75.2h10.4h0.1c1.5,0,2.7-1.2,2.7-2.6c0-1.1-0.7-2-1.6-2.4l-50.1-34.6
		c-0.9-0.6-2.1-0.6-3,0L311.4,326c-0.9,0.7-1.4,1.8-1,2.9c0.3,1.1,1.4,1.8,2.5,1.8h10.4l0,75.3c0.1,9.4,7.6,17.1,17.3,17.4l0.3,0
		h74.8h0c0.7,0,1.3-0.3,1.8-0.7l0,0l0,0l0,0l0,0l0,0l0,0l0,0l0,0l0,0l0,0l0,0l0,0l0,0c0.5-0.5,0.7-1.1,0.7-1.8v0v0v0v0v0v0v0v0
		C418.3,419.8,417.6,418.9,416.7,418.5z"/>
</g>
</svg>
